<?xml version="1.0" encoding="UTF-8"?>
<svg width="600" height="800" version="1.1" viewBox="0 0 159 212" xmlns="http://www.w3.org/2000/svg" xmlns:cc="http://creativecommons.org/ns#" xmlns:dc="http://purl.org/dc/elements/1.1/" xmlns:rdf="http://www.w3.org/1999/02/22-rdf-syntax-ns#">
 <metadata>
  <rdf:RDF>
   <cc:Work rdf:about="">
    <dc:format>image/svg+xml</dc:format>
    <dc:type rdf:resource="http://purl.org/dc/dcmitype/StillImage"/>
   </cc:Work>
  </rdf:RDF>
 </metadata>
 <g fill="none" stroke-linecap="round" stroke-linejoin="round">
  <circle r="0" stroke="#c53822" stroke-width="2.26" style="paint-order:stroke markers fill"/>
  <g stroke="#924019">
   <circle r="0" stroke-width="1.29" style="paint-order:stroke markers fill"/>
   <circle transform="scale(1,-1)" r="0" stroke-width="3.6" style="paint-order:stroke markers fill"/>
   <circle transform="scale(1,-1)" r="0" stroke-width="3.6" style="paint-order:stroke markers fill"/>
  </g>
  <circle transform="scale(1,-1)" r="0" stroke="#4d4320" stroke-width="4.38" style="paint-order:stroke markers fill"/>
  <circle transform="scale(1,-1)" r="0" stroke="#4d4320" stroke-width="3.52" style="paint-order:stroke markers fill"/>
 </g>
 <path d="m84.2 109-4.12 3.6a4.31 4.31 0 0 0-2.82-1.05 4.31 4.31 0 0 0-2.65 0.91l-3.97-3.45 3.44 3.94a4.31 4.31 0 0 0-1.13 2.91 4.31 4.31 0 0 0 1.07 2.83l-3.37 3.88 3.88-3.39a4.31 4.31 0 0 0 2.73 0.98 4.31 4.31 0 0 0 2.89-1.12l4.06 3.52-3.56-4.06a4.31 4.31 0 0 0 0.904-2.64 4.31 4.31 0 0 0-0.957-2.71z" fill="#ffe300" fill-opacity=".436" stroke-width=".591" style="paint-order:stroke markers fill"/>
 <circle cx="92.3" cy="143" r="3.83" fill="#ffdf00" fill-opacity=".215" stroke-width=".884" style="paint-order:stroke markers fill"/>
 <circle cx="103" cy="91.2" r="2.06" fill="#fffa00" fill-opacity=".657" stroke-width=".475" style="paint-order:stroke markers fill"/>
 <circle cx="77.1" cy="163" r="2.5" fill="#ffe300" fill-opacity=".215" stroke-width=".577" style="paint-order:stroke markers fill"/>
 <circle cx="86.8" cy="96.9" r="2.43" fill="#fc0" fill-opacity=".215" stroke-width=".56" style="paint-order:stroke markers fill"/>
 <circle cx="78" cy="81.5" r="1.84" fill="#fc0" fill-opacity=".777" stroke-width=".424" style="paint-order:stroke markers fill"/>
 <circle cx="73.8" cy="136" r="3.83" fill="#fff500" fill-opacity=".215" stroke-width=".884" style="paint-order:stroke markers fill"/>
 <circle cx="64.2" cy="129" r="3.83" fill="#fc0" fill-opacity=".215" stroke-width=".884" style="paint-order:stroke markers fill"/>
</svg>
