<?xml version="1.0" encoding="UTF-8"?>
<!-- Created with Inkscape (http://www.inkscape.org/) -->
<svg width="78.6mm" height="56.1mm" version="1.1" viewBox="0 0 78.6 56.1" xmlns="http://www.w3.org/2000/svg">
 <g transform="translate(-29.9 -26.8)">
  <g fill="#b1cfb0" stroke-width=".823">
   <path d="m79.8 65.4 3.04 3.11-2.39 1.28z" style="paint-order:stroke markers fill"/>
   <path d="m81 56.5 7.19 0.0756 1.88 4.83-0.685 4.83-5.72 2.12-3.66-3.85z" style="paint-order:stroke markers fill"/>
   <path d="m80.9 78.4v-7.63l2.64-2.23 5.15-0.694 2.39 5.94-2.2 4.86z" style="paint-order:stroke markers fill"/>
  </g>
  <g stroke-width=".823">
   <path d="m64.9 51.2 5.28-1.71 0.303 29.2h-4.84z" fill="#91601c" style="paint-order:stroke markers fill"/>
   <path d="m65.2 51.8-6.2 0.297 1.14 26.1 5.42 0.03z" fill="#dc9f4b" style="paint-order:stroke markers fill"/>
   <path d="m70.5 51.9h3.91l-0.0015 26.6-3.94 0.0049z" fill="#c17f25" style="paint-order:stroke markers fill"/>
   <path d="m74.7 52.9 4.95 0.199-0.0441 25.4-5.12-0.238z" fill="#c17f25" style="paint-order:stroke markers fill"/>
   <path d="m87.8 77.9-2.77-14.5 4.05 10.5 1.23-13.2 1.01 10.9 5.1-8.64-2.81 13.9 6.91-7.8-6.03 11.1z" fill="#06a200" style="paint-order:stroke markers fill"/>
  </g>
  <g fill="#b1cfb0" stroke-width=".823">
   <path d="m59.7 76.9-0.684-9.39-8.39-0.442-1.76 8.9 1.98 1.94z" style="paint-order:stroke markers fill"/>
   <path d="m59.4 66.6-9.02-0.584-1.79-6.5 4.89-3.93 5.18 1.64z" style="paint-order:stroke markers fill"/>
   <path d="m58.1 56.7 6.47-6.13-0.526-6.16-6.61 0.202-5.12 3.67 2.05 6.58z" style="paint-order:stroke markers fill"/>
   <path d="m65.5 50.2-1.24-8.97 8.55 0.199-1.81 8.61z" style="paint-order:stroke markers fill"/>
   <path d="m71.5 49.4 1.84-4.81 7.02 2.51-0.312 3.84-4.4 1.35-3.93-1.32z" style="paint-order:stroke markers fill"/>
   <path d="m79.1 51.8 2.67 3.85 3.94-0.769 0.374-5.06-4.96-0.807z" style="paint-order:stroke markers fill"/>
  </g>
  <path d="m75.1 54.1c-0.603-0.0242-1.29 0.379-1.57 0.818-0.278 0.439-0.253 0.865-0.0504 1.34 0.137 0.324 0.289 0.711 0.522 0.991l-1.68-0.109 0.0986 1.26 1.69 0.309c-0.248 0.209-0.46 0.495-0.647 0.737-0.318 0.411-0.452 0.816-0.296 1.31 0.156 0.495 0.72 1.06 1.31 1.19 0.589 0.131 1.41-0.198 1.77-0.548 0.358-0.35 0.348-0.768 0.501-1.5-0.689 0.564-0.668 0.82-1.05 0.877-0.377 0.0576-1.06 0.324-1.23 0.0177-0.167-0.306-0.0644-0.766 0.211-1.11 0.216-0.267 0.691-0.474 1.23-0.656l2.85 0.521 0.0504 1.76 1.57 0.188-0.0408-4.93h-0.725l-0.88-0.0872 0.0438 1.07-2.89-0.188c-0.53-0.343-1-0.697-1.16-1.04-0.179-0.4-0.16-0.87 0.0801-1.12 0.24-0.253 0.831 0.179 1.18 0.332 0.35 0.152 0.264 0.394 0.786 1.12 0.0384-0.744 0.156-1.14-0.101-1.58-0.257-0.43-0.964-0.959-1.57-0.983z" fill="#675230" stroke-width=".823" style="paint-order:stroke markers fill"/>
  <path d="m74.8 70.6c-0.233-0.0025-0.471 0.0499-0.683 0.177-0.425 0.255-0.835 0.904-0.797 1.43 0.0306 0.421 0.19 0.776 0.452 0.985l-0.834-0.0418-0.151 0.744 1.42 0.318c-0.255 0.142-0.497 0.378-0.549 0.692-0.0615 0.374 0.144 0.882 0.5 1.14 0.356 0.257 1.03 0.309 1.38 0.13 0.354-0.179 0.525-0.583 0.512-0.852s-0.169-0.397-0.372-0.499-0.318-0.308-0.745 0c0.346 0.0327 0.379 0.0581 0.59 0.253 0.211 0.195 0.13 0.337-0.0552 0.477-0.185 0.141-0.747 0.0836-0.903-0.142-0.156-0.226 0.0255-0.5 0.149-0.716 0.0721-0.126 0.284-0.19 0.43-0.273l3.29 0.738 0.155 1.24h1.31l-0.0117-3.67 0.0867-1.14-1.32-0.242-0.54 2.06-2.88-0.144c-0.499-0.124-0.999-0.593-1.04-0.982-0.0451-0.413 0.236-0.752 0.564-0.857 0.328-0.104 0.8 0.0792 0.967 0.377 0.167 0.297-0.0311 0.616-0.177 0.993 0.465-0.0908 0.693-0.658 0.671-1.07-0.0221-0.415-0.372-0.784-0.759-0.968-0.193-0.0918-0.422-0.149-0.655-0.151z" fill="#675230" stroke-width=".823" style="paint-order:stroke markers fill"/>
  <path d="m62.8 64.9c0.0047 0.379-0.0201 0.678 0.0374 1.07-0.381 0.0456-0.607 0.103-0.813 0.429s-0.144 0.842 0.0512 1.21c0.195 0.364 0.471 0.741 1.03 0.751 0.555 0.0102 1.41-0.698 1.71-1.15 0.297-0.456 0.439-0.867 0.213-1.19s-0.636-0.394-1.12-0.184c-0.0114-0.339 0.0501-0.718 0-1.03 0.696 0.0092 1.49 0.173 1.87 0.743 0.383 0.57 0.361 1.36-0.0226 2.11-0.384 0.742-1.55 1.61-2.35 1.7-0.798 0.0911-1.28-0.176-1.77-0.747-0.489-0.57-0.803-1.81-0.635-2.51 0.168-0.702 0.415-0.901 0.88-1.02s0.611-0.244 0.925-0.179z" fill="#443620" stroke-width=".591" style="paint-order:stroke markers fill"/>
  <g transform="matrix(.49 0 0 .49 15.2 13.7)" stroke-width="1.68">
   <path d="m65.4 36.4c11.4-2.13 29.6 9.73 32.8 16.7 3.25 6.95-1.84 7.24-5.89 8.58-4.05 1.34-29 7.75-37.9 5.96-8.9-1.79-11.4 0.216-11-6.84 0.365-7.05 10.5-22.3 21.9-24.4z" fill="#96ff80" style="paint-order:stroke markers fill"/>
   <path d="m66.9 64.6-6.63 1.33-0.0994-4.68-5.22 3.5-7.23-0.968-2.42-3.94 3.85-2.63 4.71-2.31 16.3-4.94 12.1 2.13 12 3.88 0.434 2.33-8.18 2-4.36-2.51 3.58 3.57-6.85 1.55-3.19-3.91 1.8 3.95-8.95 1.52 0.47-5.52z" fill="#ceffc2" style="paint-order:stroke markers fill"/>
   <path d="m66.1 53s-0.257 24.5 4.39 30.6c4.64 6.13 13.9 6.15 13.9 6.15l0.854-7.8-7.31-4.25-5.18-26.3z" fill="#afff80" style="paint-order:stroke markers fill"/>
   <path d="m65.5 53.5 3.46-2.47 4.48 0.641 2.1 10.2-2.84-4.92-0.305 6.13-2.53-2.19-1 1.69-1.82-2.24-1.17 1.24z" fill="#fcfffb" style="paint-order:stroke markers fill"/>
  </g>
 </g>
</svg>
